{
	"asset":{
		"generator":"Khronos glTF Blender I/O v4.2.60",
		"version":"2.0"
	},
	"scene":0,
	"scenes":[
		{
			"name":"Scene",
			"nodes":[
				0
			]
		}
	],
	"nodes":[
		{
			"mesh":0,
			"name":"Christmas_Tree",
			"scale":[
				500,
				500,
				500
			]
		}
	],
	"materials":[
		{
			"doubleSided":true,
			"name":"Christmas_Tree_Material",
			"pbrMetallicRoughness":{
				"baseColorTexture":{
					"index":0
				},
				"metallicFactor":0
			}
		}
	],
	"meshes":[
		{
			"name":"Mesh",
			"primitives":[
				{
					"attributes":{
						"POSITION":0,
						"NORMAL":1,
						"TEXCOORD_0":2
					},
					"indices":3,
					"material":0
				}
			]
		}
	],
	"textures":[
		{
			"sampler":0,
			"source":0
		}
	],
	"images":[
		{
			"mimeType":"image/png",
			"name":"Christmas_Tree_BaseColor",
			"uri":"Christmas_Tree_BaseColor.png"
		}
	],
	"accessors":[
		{
			"bufferView":0,
			"componentType":5126,
			"count":1975,
			"max":[
				1.114473581314087,
				3.7554965019226074,
				1.1116918325424194
			],
			"min":[
				-1.1135386228561401,
				2.362806394984318e-09,
				-1.1116918325424194
			],
			"type":"VEC3"
		},
		{
			"bufferView":1,
			"componentType":5126,
			"count":1975,
			"type":"VEC3"
		},
		{
			"bufferView":2,
			"componentType":5126,
			"count":1975,
			"type":"VEC2"
		},
		{
			"bufferView":3,
			"componentType":5123,
			"count":5886,
			"type":"SCALAR"
		}
	],
	"bufferViews":[
		{
			"buffer":0,
			"byteLength":23700,
			"byteOffset":0,
			"target":34962
		},
		{
			"buffer":0,
			"byteLength":23700,
			"byteOffset":23700,
			"target":34962
		},
		{
			"buffer":0,
			"byteLength":15800,
			"byteOffset":47400,
			"target":34962
		},
		{
			"buffer":0,
			"byteLength":11772,
			"byteOffset":63200,
			"target":34963
		}
	],
	"samplers":[
		{
			"magFilter":9729,
			"minFilter":9987
		}
	],
	"buffers":[
		{
			"byteLength":74972,
			"uri":"Tree.bin"
		}
	]
}
