{
	"asset":{
		"generator":"Khronos glTF Blender I/O v4.0.44",
		"version":"2.0"
	},
	"scene":0,
	"scenes":[
		{
			"name":"Scene",
			"nodes":[
				0,
				1
			]
		}
	],
	"nodes":[
		{
			"mesh":0,
			"name":"Roundcube.014",
			"scale":[
				1000,
				1000,
				1000
			]
		},
		{
			"mesh":1,
			"name":"Roundcube.015",
			"scale":[
				0.10000000149011612,
				0.10000000149011612,
				0.10000000149011612
			]
		}
	],
	"materials":[
		{
			"doubleSided":true,
			"name":"Balls",
			"pbrMetallicRoughness":{
				"baseColorTexture":{
					"index":0
				},
				"metallicFactor":0
			}
		}
	],
	"meshes":[
		{
			"name":"Roundcube.014",
			"primitives":[
				{
					"attributes":{
						"POSITION":0,
						"NORMAL":1,
						"TEXCOORD_0":2
					},
					"indices":3,
					"material":0
				}
			]
		},
		{
			"name":"Roundcube.015",
			"primitives":[
				{
					"attributes":{
						"POSITION":4,
						"NORMAL":5,
						"TEXCOORD_0":6
					},
					"indices":7,
					"material":0
				}
			]
		}
	],
	"textures":[
		{
			"sampler":0,
			"source":0
		}
	],
	"images":[
		{
			"mimeType":"image/png",
			"name":"ChrismasBallText",
			"uri":"ChrismasBallText.png"
		}
	],
	"accessors":[
		{
			"bufferView":0,
			"componentType":5126,
			"count":69,
			"max":[
				0.09831245988607407,
				0.19639062881469727,
				0.09695373475551605
			],
			"min":[
				-0.0981106087565422,
				-3.2432377338409424e-05,
				-0.09946931898593903
			],
			"type":"VEC3"
		},
		{
			"bufferView":1,
			"componentType":5126,
			"count":69,
			"type":"VEC3"
		},
		{
			"bufferView":2,
			"componentType":5126,
			"count":69,
			"type":"VEC2"
		},
		{
			"bufferView":3,
			"componentType":5123,
			"count":324,
			"type":"SCALAR"
		},
		{
			"bufferView":4,
			"componentType":5126,
			"count":32,
			"max":[
				0.028219617903232574,
				0.2268655151128769,
				0.026860877871513367
			],
			"min":[
				-0.028017722070217133,
				0.19639061391353607,
				-0.02937646210193634
			],
			"type":"VEC3"
		},
		{
			"bufferView":5,
			"componentType":5126,
			"count":32,
			"type":"VEC3"
		},
		{
			"bufferView":6,
			"componentType":5126,
			"count":32,
			"type":"VEC2"
		},
		{
			"bufferView":7,
			"componentType":5123,
			"count":180,
			"type":"SCALAR"
		}
	],
	"bufferViews":[
		{
			"buffer":0,
			"byteLength":828,
			"byteOffset":0,
			"target":34962
		},
		{
			"buffer":0,
			"byteLength":828,
			"byteOffset":828,
			"target":34962
		},
		{
			"buffer":0,
			"byteLength":552,
			"byteOffset":1656,
			"target":34962
		},
		{
			"buffer":0,
			"byteLength":648,
			"byteOffset":2208,
			"target":34963
		},
		{
			"buffer":0,
			"byteLength":384,
			"byteOffset":2856,
			"target":34962
		},
		{
			"buffer":0,
			"byteLength":384,
			"byteOffset":3240,
			"target":34962
		},
		{
			"buffer":0,
			"byteLength":256,
			"byteOffset":3624,
			"target":34962
		},
		{
			"buffer":0,
			"byteLength":360,
			"byteOffset":3880,
			"target":34963
		}
	],
	"samplers":[
		{
			"magFilter":9729,
			"minFilter":9987
		}
	],
	"buffers":[
		{
			"byteLength":4240,
			"uri":"untitled.bin"
		}
	]
}
